<?xml version="1.0" encoding="UTF-8" standalone="no"?>
<svg width="290px" height="42px" viewBox="0 0 290 42" version="1.1" xmlns="http://www.w3.org/2000/svg" xmlns:xlink="http://www.w3.org/1999/xlink" xmlns:sketch="http://www.bohemiancoding.com/sketch/ns">
    <!-- Generator: Sketch 3.2.2 (9983) - http://www.bohemiancoding.com/sketch -->
    <title>arrow</title>
    <desc>Created with Sketch.</desc>
    <defs></defs>
    <g id="Page-1" stroke="none" stroke-width="1" fill="none" fill-rule="evenodd" sketch:type="MSPage">
        <path d="M288.033125,20.7007372 C281.432125,16.9407372 273.270125,14.7847372 266.021125,12.7647372 C265.288125,12.5617372 264.279125,13.1617372 264.386125,14.0097372 C264.640125,16.0407372 265.018125,18.0417372 265.449125,20.0307372 C263.895125,19.9617372 262.340125,19.9037372 260.786125,19.8567372 C260.393125,18.1557372 259.964125,16.4647372 259.497125,14.7867372 C259.350125,14.2567372 258.487125,14.3467372 258.522125,14.9187372 C258.621125,16.5527372 258.780125,18.1787372 258.948125,19.8047372 C258.710125,19.7997372 258.473125,19.7907372 258.236125,19.7867372 C257.076125,19.7637372 255.915125,19.7727372 254.754125,19.7617372 C254.548125,19.2027372 254.320125,18.6557372 254.082125,18.1257372 C253.985125,17.9117372 253.606125,18.0127372 253.632125,18.2477372 C253.689125,18.7497372 253.720125,19.2517372 253.743125,19.7547372 C252.468125,19.7477372 251.192125,19.7597372 249.917125,19.7617372 C249.514125,18.5637372 249.064125,17.4087372 248.645125,16.3707372 C248.558125,16.1557372 248.165125,16.1557372 248.199125,16.4307372 C248.330125,17.4877372 248.375125,18.6177372 248.417125,19.7647372 C242.616125,19.7887372 236.813125,19.8997372 231.012125,20.0227372 C230.670125,18.0987372 228.397125,17.0757372 226.442125,17.4657372 C224.866125,17.7827372 223.861125,18.8547372 223.357125,20.1817372 C222.463125,20.2007372 221.569125,20.2197372 220.676125,20.2377372 C195.568125,20.7217372 170.539125,20.4877372 145.436125,19.8967372 C133.993125,19.6277372 122.547125,19.1727372 111.101125,19.4467372 C98.840125,19.7397372 86.591125,20.8317372 74.322125,20.6287372 C72.158125,20.5927372 69.995125,20.5207372 67.833125,20.4367372 C62.071125,18.2687372 56.730125,11.1187372 52.082125,7.83773723 C44.511125,2.48973723 35.215125,-0.0962627728 26.005125,0.00273722721 C20.158125,0.0647372272 12.333125,2.88173723 10.312125,9.05973723 C8.73512502,13.8857372 10.761125,17.8887372 14.415125,20.3627372 C13.307125,20.4057372 12.198125,20.4367372 11.090125,20.4747372 C10.649125,18.1187372 8.56412502,16.3487372 6.00812502,16.4457372 C5.72512502,16.4567372 5.50712502,16.6057372 5.35412502,16.8057372 C3.95812502,17.1087372 2.88012502,18.5467372 2.35812502,19.7647372 C2.23112502,20.0617372 2.14512502,20.3677372 2.07812502,20.6747372 C1.97112502,20.6747372 1.86312502,20.6787372 1.75612502,20.6797372 C-0.58487498,20.6907372 -0.58587498,24.3227372 1.75612502,24.3117372 C2.03712502,24.3107372 2.31612502,24.3007372 2.59612502,24.2997372 C3.37512502,25.7827372 4.80912502,26.9097372 6.61112502,27.0607372 C8.51212502,27.2207372 9.84812502,25.7887372 10.573125,24.1367372 C11.595125,24.1067372 12.618125,24.0817372 13.640125,24.0457372 C10.977125,26.3797372 8.85612502,29.6747372 9.89612502,32.9377372 C11.898125,39.2127372 19.190125,40.8207372 25.003125,41.6027372 C40.683125,43.7137372 52.655125,31.0557372 65.357125,23.9207372 C67.585125,24.0267372 69.811125,24.1267372 72.038125,24.2017372 C84.287125,24.6167372 96.555125,23.5747372 108.791125,23.1477372 C121.005125,22.7207372 133.225125,23.2417372 145.436125,23.5287372 C169.743125,24.1007372 193.983125,24.3767372 218.295125,23.9157372 C219.905125,23.8837372 221.514125,23.8587372 223.123125,23.8297372 C223.215125,24.2437372 223.343125,24.6457372 223.512125,25.0207372 C224.727125,27.7107372 227.559125,28.5987372 230.159125,27.2907372 C231.724125,26.5017372 232.504125,25.1187372 232.539125,23.6597372 C237.913125,23.5717372 243.288125,23.4977372 248.663125,23.4547372 C248.809125,24.6517372 249.045125,25.8087372 249.495125,26.8547372 C249.863125,27.7127372 251.061125,27.1887372 251.107125,26.4187372 C251.164125,25.4687372 251.066125,24.4617372 250.884125,23.4387372 C251.867125,23.4327372 252.850125,23.4207372 253.833125,23.4177372 C253.850125,23.9137372 253.872125,24.4107372 253.916125,24.9057372 C254.015125,26.0127372 255.568125,26.0267372 255.647125,24.9057372 C255.682125,24.4057372 255.666125,23.9067372 255.622125,23.4077372 C255.841125,23.4077372 256.061125,23.4037372 256.280125,23.4037372 C257.272125,23.4027372 258.263125,23.4307372 259.255125,23.4487372 C259.276125,24.8377372 259.304125,26.5907372 260.419125,27.1297372 C260.782125,27.3037372 261.108125,27.2537372 261.416125,27.0007372 L261.647125,26.8107372 C261.999125,26.5227372 262.034125,26.0247372 261.963125,25.6167372 C261.838125,24.9057372 261.700125,24.1977372 261.561125,23.4897372 C263.138125,23.5377372 264.716125,23.5997372 266.292125,23.6707372 C266.988125,26.5147372 267.734125,29.3467372 268.366125,32.2097372 C268.630125,33.4037372 270.122125,33.3467372 270.726125,32.5167372 C274.082125,27.9057372 280.833125,25.1957372 286.298125,24.3347372 L286.324125,24.3237372 C286.802125,24.3177372 287.278125,24.3237372 287.754125,24.3117372 C289.994125,24.2567372 290.088125,20.9317372 288.033125,20.7007372 L288.033125,20.7007372 Z M7.46412502,25.4187372 C6.22512502,25.9377372 5.05912502,25.2867372 4.26612502,24.2747372 C5.78412502,24.2537372 7.30112502,24.2297372 8.81812502,24.1887372 C8.48512502,24.7297372 8.03712502,25.1787372 7.46412502,25.4187372 L7.46412502,25.4187372 Z M3.37012502,20.6537372 C3.67512502,19.4677372 4.50812502,18.4427372 5.49112502,18.0987372 C5.57212502,18.1437372 5.66012502,18.1837372 5.77112502,18.2007372 C6.55612502,18.3217372 7.28212502,18.5097372 7.88712502,18.8277372 L8.01612502,18.9627372 L8.17112502,18.9957372 C8.71412502,19.3467372 9.12712502,19.8367372 9.34212502,20.5347372 C7.35212502,20.5927372 5.36112502,20.6317372 3.37012502,20.6537372 L3.37012502,20.6537372 Z M37.965125,37.6147372 C32.326125,39.9587372 26.473125,40.2317372 20.548125,38.9567372 C16.746125,38.1367372 11.771125,36.0527372 11.319125,31.3057372 C11.056125,28.5427372 13.166125,26.0167372 15.357125,23.9837372 C17.393125,23.9087372 19.429125,23.8237372 21.464125,23.7417372 C21.779125,25.4297372 22.076125,27.1267372 22.209125,28.8387372 C22.313125,30.1827372 24.426125,30.1847372 24.309125,28.8387372 C24.156125,27.0857372 23.791125,25.3697372 23.370125,23.6647372 C23.793125,23.6467372 24.216125,23.6297372 24.640125,23.6137372 C24.563125,24.7017372 24.524125,25.8647372 25.218125,26.5777372 C25.461125,26.8267372 25.899125,26.8337372 26.142125,26.5777372 C26.883125,25.7927372 26.708125,24.6127372 26.513125,23.5387372 C27.630125,23.4937372 28.747125,23.4497372 29.864125,23.4057372 C30.091125,25.5327372 30.360125,27.6517372 30.598125,29.7477372 C30.761125,31.1787372 33.013125,31.2117372 32.868125,29.7477372 C32.655125,27.6007372 32.364125,25.4607372 32.052125,23.3197372 C33.055125,23.2827372 34.058125,23.2377372 35.062125,23.2027372 C35.091125,24.0817372 35.128125,24.9557372 35.166125,25.8137372 C35.230125,27.2337372 37.357125,27.2457372 37.379125,25.8137372 C37.393125,24.9307372 37.323125,24.0407372 37.213125,23.1477372 C38.253125,23.1277372 39.292125,23.1087372 40.331125,23.1027372 C40.308125,23.8717372 40.284125,24.6397372 40.261125,25.4087372 C40.215125,26.9837372 39.265125,31.0907372 41.162125,31.9947372 C41.356125,32.0877372 41.542125,32.1087372 41.720125,32.1007372 C41.899125,32.1087372 42.085125,32.0877372 42.278125,31.9947372 C44.175125,31.0907372 43.225125,26.9837372 43.179125,25.4087372 C43.157125,24.6557372 43.149125,23.8797372 43.143125,23.0997372 C44.628125,23.1117372 46.112125,23.1267372 47.596125,23.1647372 C47.570125,24.1707372 47.678125,25.1817372 48.301125,25.8897372 C48.784125,26.4377372 49.741125,26.1377372 49.914125,25.4637372 C50.085125,24.7987372 50.042125,24.0227372 49.945125,23.2367372 C53.438125,23.3517372 56.930125,23.5107372 60.422125,23.6827372 C52.981125,28.4247372 46.184125,34.1987372 37.965125,37.6147372 L37.965125,37.6147372 Z M49.539125,19.6287372 C49.415125,18.1987372 49.177125,16.8057372 48.638125,15.4527372 C48.529125,15.1767372 48.120125,15.2037372 48.109125,15.5227372 C48.062125,16.8767372 47.944125,18.2257372 47.838125,19.5767372 C46.252125,19.5297372 44.666125,19.4907372 43.079125,19.4697372 C42.982125,16.6847372 42.692125,13.9017372 41.690125,11.4307372 C41.451125,10.8427372 40.511125,10.8687372 40.519125,11.5887372 C40.546125,14.2127372 40.500125,16.8417372 40.433125,19.4697372 C39.747125,19.4697372 39.062125,19.4587372 38.376125,19.4697372 C37.785125,19.4777372 37.193125,19.4977372 36.603125,19.5097372 C36.414125,18.5387372 36.225125,17.5717372 36.078125,16.6207372 C35.998125,16.1027372 35.295125,16.3037372 35.242125,16.7337372 C35.127125,17.6547372 35.075125,18.5967372 35.045125,19.5457372 C33.866125,19.5757372 32.687125,19.6277372 31.507125,19.6677372 C31.067125,16.8437372 30.612125,14.0227372 30.232125,11.1997372 C30.179125,10.8057372 29.627125,10.9527372 29.591125,11.2867372 C29.291125,14.0797372 29.340125,16.9077372 29.538125,19.7337372 C28.318125,19.7797372 27.099125,19.8367372 25.878125,19.8857372 C25.650125,18.8017372 25.378125,17.7297372 25.046125,16.6577372 C24.954125,16.3627372 24.463125,16.4037372 24.488125,16.7337372 C24.569125,17.7987372 24.611125,18.8687372 24.643125,19.9367372 C23.909125,19.9657372 23.174125,19.9977372 22.439125,20.0277372 C21.747125,17.2667372 21.186125,14.4897372 21.410125,11.5887372 C21.434125,11.2827372 20.954125,11.2257372 20.880125,11.5167372 C20.151125,14.4117372 20.359125,17.2547372 20.810125,20.0947372 C20.115125,20.1247372 19.420125,20.1507372 18.726125,20.1807372 C13.555125,18.4657372 9.93612502,13.9967372 12.952125,8.47773723 C15.512125,3.79473723 21.139125,2.37773723 26.005125,2.05773723 C33.589125,1.55973723 41.300125,4.04073723 47.874125,7.61873723 C53.136125,10.4817372 57.239125,14.7187372 61.892125,18.3897372 C62.630125,18.9717372 63.488125,19.6607372 64.416125,20.2947372 C59.457125,20.0687372 54.500125,19.8017372 49.539125,19.6287372 L49.539125,19.6287372 Z M226.410125,18.5447372 C227.262125,18.1417372 228.260125,18.1317372 229.110125,18.5327372 C229.785125,18.8487372 230.135125,19.4087372 230.378125,20.0367372 C228.483125,20.0757372 226.589125,20.1147372 224.695125,20.1537372 C225.068125,19.4857372 225.628125,18.9137372 226.410125,18.5447372 L226.410125,18.5447372 Z M229.360125,25.9237372 C227.649125,26.9487372 225.753125,26.2687372 224.807125,24.6027372 C224.660125,24.3447372 224.542125,24.0777372 224.445125,23.8037372 C226.596125,23.7647372 228.746125,23.7257372 230.896125,23.6887372 C230.841125,24.5637372 230.276125,25.3767372 229.360125,25.9237372 L229.360125,25.9237372 Z" id="arrow" fill="#1B1A19" sketch:type="MSShapeGroup"></path>
    </g>
</svg>