<?xml version="1.0" encoding="UTF-8" standalone="no"?>
<svg width="250px" height="90px" viewBox="0 0 250 90" version="1.1" xmlns="http://www.w3.org/2000/svg" xmlns:xlink="http://www.w3.org/1999/xlink" xmlns:sketch="http://www.bohemiancoding.com/sketch/ns">
    <!-- Generator: Sketch 3.2.2 (9983) - http://www.bohemiancoding.com/sketch -->
    <title>end</title>
    <desc>Created with Sketch.</desc>
    <defs></defs>
    <g id="Page-1" stroke="none" stroke-width="1" fill="none" fill-rule="evenodd" sketch:type="MSPage">
        <g id="end" sketch:type="MSLayerGroup" transform="translate(0.000000, -1.000000)" fill="#1B1A19">
            <path d="M106.679,26.682 C99.289,21.013 90.961,23.28 85.833,30.759 C81.106,37.658 87.594,45.661 93.802,48.531 C98.165,50.549 102.443,49.039 101.537,43.785 C101.441,43.224 101.082,42.954 100.67,42.881 L100.642,42.773 C100.579,42.505 100.475,42.262 100.367,42.009 C100.076,41.329 99.334,40.966 98.69,40.721 C98.067,40.484 97.222,40.98 97.098,41.626 C96.963,42.323 96.81,43.051 96.877,43.763 C96.903,44.039 96.953,44.312 97.002,44.584 L97.016,44.658 L97.022,44.718 C97.046,44.954 97.049,45.189 97.051,45.424 C97.06,46.191 97.758,46.714 98.429,46.716 C96.248,47.71 89.552,42.358 88.54,40.955 C83.687,34.218 91.058,26.065 98.144,25.863 C110.844,25.498 116.212,45.803 113.093,55.13 C109.66,65.392 97.762,65.408 89.397,62.529 C80.587,59.499 72.361,54.352 63.96,50.37 C51.107,44.278 36.83,40.375 22.944,45.079 C13.117,48.407 2.741,56.109 0.8,66.867 C-1.104,77.437 9.267,87.613 18.735,90.031 C34.427,94.036 48.132,68.183 27.796,67.87 C24.381,67.818 23.352,69.894 23.69,72.238 C23.552,73.988 24.951,76.478 26.013,77.837 L26.092,78.003 C26.533,78.875 27.453,78.782 28.01,78.266 C28.216,78.357 28.421,78.451 28.633,78.509 C29.239,78.678 29.745,78.386 30.096,77.915 C31.727,75.721 30.498,71.907 28.091,70.695 C29.593,70.481 31.672,70.796 32.737,71.092 C39.634,73.009 34.129,81.704 31.224,84.375 C25.935,89.244 18.679,88.264 13.044,84.698 C4.941,79.566 0.765,70.304 5.393,61.538 C13.15,46.843 32.837,43.667 47.367,46.98 C63.923,50.755 77.4,62.712 93.852,66.508 C104.103,68.874 115.225,62.828 116.556,51.917 C117.65,42.947 114.011,32.305 106.679,26.682" id="Fill-722" sketch:type="MSShapeGroup"></path>
            <path d="M133.263,51.917 C134.593,62.828 145.715,68.874 155.965,66.508 C172.419,62.712 185.895,50.755 202.452,46.98 C216.982,43.667 236.669,46.843 244.426,61.538 C249.053,70.304 244.879,79.566 236.774,84.698 C231.14,88.264 223.885,89.244 218.593,84.375 C215.689,81.704 210.185,73.009 217.083,71.092 C218.146,70.796 220.225,70.481 221.727,70.695 C219.319,71.907 218.093,75.721 219.724,77.915 C220.075,78.386 220.579,78.678 221.186,78.509 C221.399,78.451 221.604,78.357 221.809,78.266 C222.368,78.782 223.286,78.875 223.726,78.003 L223.806,77.837 C224.868,76.478 226.267,73.988 226.129,72.238 C226.466,69.894 225.438,67.818 222.024,67.87 C201.688,68.183 215.393,94.036 231.082,90.031 C240.552,87.613 250.923,77.437 249.017,66.867 C247.079,56.109 236.703,48.407 226.875,45.079 C212.988,40.375 198.71,44.278 185.859,50.37 C177.459,54.352 169.23,59.499 160.422,62.529 C152.057,65.408 140.158,65.392 136.726,55.13 C133.606,45.803 138.975,25.498 151.675,25.863 C158.76,26.065 166.131,34.218 161.277,40.955 C160.265,42.358 153.572,47.71 151.389,46.716 C152.062,46.714 152.76,46.191 152.768,45.424 C152.77,45.189 152.773,44.954 152.798,44.718 L152.803,44.658 L152.818,44.584 C152.866,44.312 152.915,44.039 152.942,43.763 C153.009,43.051 152.856,42.323 152.722,41.626 C152.596,40.98 151.752,40.484 151.128,40.721 C150.483,40.966 149.744,41.329 149.451,42.009 C149.342,42.262 149.239,42.505 149.177,42.773 L149.15,42.881 C148.737,42.954 148.376,43.224 148.28,43.785 C147.377,49.039 151.652,50.549 156.017,48.531 C162.223,45.661 168.714,37.658 163.985,30.759 C158.859,23.28 150.532,21.013 143.14,26.682 C135.809,32.305 132.169,42.947 133.263,51.917" id="Fill-723" sketch:type="MSShapeGroup"></path>
            <path d="M137.835,2.827 C135.235,-1.934 129.023,3.419 125.513,7.649 C122.577,3.068 115.04,-1.782 110.66,3.03 C108.259,5.666 109.825,10.622 111.107,13.323 C114.371,20.204 120.391,25.384 122.569,32.816 C122.993,34.261 125.025,33.912 125.114,32.472 C125.546,25.404 132.352,20.675 136.011,15.122 C138.108,11.937 139.797,6.419 137.835,2.827" id="Fill-724" sketch:type="MSShapeGroup"></path>
        </g>
    </g>
</svg>