<?xml version="1.0" encoding="UTF-8" standalone="no"?>
<svg width="303px" height="40px" viewBox="0 0 303 40" version="1.1" xmlns="http://www.w3.org/2000/svg" xmlns:xlink="http://www.w3.org/1999/xlink" xmlns:sketch="http://www.bohemiancoding.com/sketch/ns">
    <!-- Generator: Sketch 3.2.2 (9983) - http://www.bohemiancoding.com/sketch -->
    <title>floral-rule</title>
    <desc>Created with Sketch.</desc>
    <defs></defs>
    <g id="Page-1" stroke="none" stroke-width="1" fill="none" fill-rule="evenodd" sketch:type="MSPage">
        <path d="M294.353156,17.937 C295.604156,16.638 296.791156,15.185 297.903156,13.563 C298.011156,13.407 298.059156,13.254 298.072156,13.106 L298.080156,13.102 C301.176156,10.17 302.300156,5.526 302.373156,1.395 C302.383156,0.842 301.911156,0.404 301.373156,0.395 C296.176156,0.297 295.404156,7.556 295.373156,11.395 C295.369156,12.032 295.855156,12.353 296.349156,12.359 L296.177156,12.554 C295.060156,14.18 293.867156,15.623 292.611156,16.909 C292.352156,14.614 291.555156,12.196 289.966156,10.669 C288.187156,8.96 287.058156,11.443 287.152156,12.995 C287.304156,15.508 288.012156,17.843 289.527156,19.651 C284.344156,23.628 278.277156,25.387 271.750156,25.738 C273.732156,22.586 276.830156,17.97 275.338156,14.456 C274.219156,11.82 272.225156,13.312 270.811156,15.184 C270.643156,15.277 270.519156,15.449 270.451156,15.684 C269.811156,16.624 269.343156,17.576 269.219156,18.095 C268.470156,21.238 268.116156,23.634 269.208156,25.804 C261.391156,25.805 253.008156,23.993 244.732156,21.682 L244.722156,21.646 C248.119156,19.756 252.951156,16.324 252.868156,12.186 C252.775156,7.554 247.502156,10.421 246.049156,12.282 C243.917156,15.014 242.102156,17.938 242.484156,21.041 C232.183156,18.054 222.169156,14.497 213.721156,12.866 C216.889156,11.031 222.222156,8.542 222.480156,5.057 C222.615156,3.233 221.185156,2.335 219.593156,1.909 C217.261156,1.286 215.035156,3.687 213.763156,5.235 C212.156156,7.191 210.834156,9.731 210.252156,12.255 C201.049156,10.818 191.433156,10.104 182.105156,11.056 C184.056156,8.344 186.631156,4.194 185.798156,1.267 C185.366156,-0.25 183.531156,0.057 182.439156,0.433 C180.437156,1.12 178.949156,3.444 178.589156,5.451 C178.254156,7.314 178.114156,9.549 178.668156,11.493 C177.682156,11.64 176.701156,11.799 175.724156,11.987 C171.232156,12.854 166.581156,14.296 162.716156,16.678 C162.404156,16.304 162.063156,15.957 161.682156,15.657 C159.424156,13.883 154.226156,16.004 151.517156,18.764 C149.389156,13.62 141.101156,11.396 136.867156,15.169 C133.651156,13.659 130.102156,12.653 126.648156,11.987 C125.672156,11.799 124.690156,11.64 123.705156,11.493 C124.259156,9.549 124.119156,7.314 123.784156,5.451 C123.424156,3.444 121.935156,1.12 119.934156,0.433 C118.842156,0.057 117.007156,-0.25 116.575156,1.267 C115.742156,4.194 118.316156,8.344 120.268156,11.056 C110.940156,10.104 101.324156,10.818 92.1211561,12.255 C91.5391561,9.731 90.2171561,7.191 88.6101561,5.235 C87.3381561,3.687 85.1121561,1.286 82.7801561,1.909 C81.1871561,2.335 79.7581561,3.233 79.8931561,5.057 C80.1511561,8.542 85.4841561,11.031 88.6521561,12.866 C80.2041561,14.497 70.1891561,18.054 59.8891561,21.041 C60.2711561,17.938 58.4561561,15.014 56.3241561,12.282 C54.8711561,10.421 49.5981561,7.554 49.5051561,12.186 C49.4221561,16.324 54.2541561,19.756 57.6511561,21.646 L57.6401561,21.682 C49.3651561,23.993 40.9811561,25.805 33.1651561,25.804 C34.2571561,23.634 33.9031561,21.238 33.1541561,18.095 C33.0301561,17.576 32.5611561,16.624 31.9221561,15.684 C31.8531561,15.449 31.7291561,15.277 31.5611561,15.184 C30.1471561,13.312 28.1541561,11.82 27.0351561,14.456 C25.5431561,17.97 28.6411561,22.586 30.6231561,25.738 C24.0961561,25.387 18.0291561,23.628 12.8461561,19.651 C14.3611561,17.843 15.0691561,15.508 15.2211561,12.995 C15.3141561,11.443 14.1851561,8.96 12.4071561,10.669 C10.8181561,12.196 10.0211561,14.614 9.76215607,16.909 C8.50615607,15.623 7.31215607,14.18 6.19615607,12.554 L6.02315607,12.359 C6.51715607,12.353 7.00415607,12.032 7.00015607,11.395 C6.96915607,7.556 6.19715607,0.297 1.00015607,0.395 C0.462156069,0.404 -0.00984393083,0.842 0.000156069174,1.395 C0.0731560692,5.526 1.19715607,10.17 4.29315607,13.102 L4.30115607,13.106 C4.31315607,13.254 4.36215607,13.407 4.47015607,13.563 C5.58215607,15.185 6.76915607,16.638 8.01915607,17.937 C5.41215607,17.647 2.74815607,18.264 0.959156069,20.354 C0.535156069,20.85 0.584156069,21.565 1.16115607,21.925 C4.02815607,23.711 7.34715607,23.301 10.2321561,21.775 C10.6741561,21.542 11.0781561,21.28 11.4531561,20.999 C16.6831561,25 22.7831561,26.873 29.3071561,27.386 C27.4111561,29.166 24.8941561,30.664 23.4281561,32.9 C21.7811561,35.411 24.4021561,38.293 27.0641561,37.221 C30.1851561,35.962 32.6211561,30.751 32.9821561,27.535 C40.5911561,27.567 48.6471561,25.99 56.5101561,23.919 C55.3081561,25.744 53.8221561,27.3 53.1021561,29.421 C52.4651561,31.295 54.1411561,34.762 56.3201561,32.853 C58.7481561,30.726 60.4421561,26.231 60.6681561,23.064 C60.6761561,22.958 60.6501561,22.876 60.6311561,22.788 C68.4671561,20.557 75.9911561,18.018 82.5311561,16.295 C84.8691561,15.679 87.2361561,15.165 89.6181561,14.714 C89.3731561,15.303 89.0251561,15.937 88.5741561,16.672 C87.2301561,18.857 85.5411561,21.069 84.7131561,23.521 C83.6191561,26.76 86.3551561,28.095 88.8631561,26.062 C91.5941561,23.848 92.7641561,17.972 92.4391561,14.217 C100.513156,12.907 108.754156,12.482 116.889156,12.873 C117.899156,12.922 118.952156,12.989 120.031156,13.08 C117.629156,15.332 113.705156,16.494 111.346156,19.147 C109.172156,21.592 111.375156,24.879 114.403156,24.639 C118.143156,24.342 120.794156,18.49 121.919156,15.453 L121.955156,15.359 L121.966156,15.329 C122.093156,14.984 122.014156,14.703 121.844156,14.493 C122.227156,14.171 122.573156,13.806 122.858156,13.376 C127.160156,13.908 131.678156,14.894 135.613156,16.669 L135.471156,16.892 C130.058156,26.399 144.496156,33.206 149.627156,38.771 C149.934156,39.103 150.459156,39.143 150.840156,38.927 C155.782156,36.121 160.791156,32.944 163.635156,27.859 C165.146156,25.159 165.200156,21.221 163.750156,18.278 C168.263156,15.452 174.060156,14.051 179.515156,13.376 C179.800156,13.806 180.145156,14.171 180.529156,14.493 C180.358156,14.703 180.280156,14.984 180.407156,15.329 L180.418156,15.359 L180.454156,15.453 C181.579156,18.49 184.230156,24.342 187.970156,24.639 C190.998156,24.879 193.201156,21.592 191.027156,19.147 C188.668156,16.494 184.744156,15.332 182.342156,13.08 C183.421156,12.989 184.473156,12.922 185.484156,12.873 C193.619156,12.482 201.859156,12.907 209.934156,14.217 C209.609156,17.972 210.779156,23.848 213.510156,26.062 C216.017156,28.095 218.754156,26.76 217.660156,23.521 C216.832156,21.069 215.143156,18.857 213.799156,16.672 C213.347156,15.937 213.000156,15.303 212.755156,14.714 C215.137156,15.165 217.504156,15.679 219.842156,16.295 C226.382156,18.018 233.906156,20.557 241.742156,22.788 C241.722156,22.876 241.697156,22.958 241.705156,23.064 C241.930156,26.231 243.625156,30.726 246.053156,32.853 C248.232156,34.762 249.908156,31.295 249.271156,29.421 C248.551156,27.3 247.064156,25.744 245.863156,23.919 C253.725156,25.99 261.782156,27.567 269.390156,27.535 C269.752156,30.751 272.187156,35.962 275.308156,37.221 C277.971156,38.293 280.592156,35.411 278.945156,32.9 C277.478156,30.664 274.962156,29.166 273.066156,27.386 C279.590156,26.873 285.689156,25 290.920156,20.999 C291.295156,21.28 291.699156,21.542 292.141156,21.775 C295.026156,23.301 298.345156,23.711 301.212156,21.925 C301.789156,21.565 301.838156,20.85 301.414156,20.354 C299.625156,18.264 296.961156,17.647 294.353156,17.937" id="floral-rule" fill="#1B1A19" sketch:type="MSShapeGroup"></path>
    </g>
</svg>