<?xml version="1.0" encoding="UTF-8" standalone="no"?>
<svg width="126px" height="104px" viewBox="0 0 126 104" version="1.1" xmlns="http://www.w3.org/2000/svg" xmlns:xlink="http://www.w3.org/1999/xlink" xmlns:sketch="http://www.bohemiancoding.com/sketch/ns">
    <!-- Generator: Sketch 3.2.2 (9983) - http://www.bohemiancoding.com/sketch -->
    <title>OCD + Type something</title>
    <desc>Created with Sketch.</desc>
    <defs></defs>
    <g id="Page-1" stroke="none" stroke-width="1" fill="none" fill-rule="evenodd" sketch:type="MSPage">
        <g id="OCD-+-Type-something" sketch:type="MSLayerGroup" transform="translate(0.000000, -25.000000)" fill="#000000">
            <text id="OCD" sketch:type="MSTextLayer" font-family="Noteworthy" font-size="64" font-weight="260" sketch:alignment="middle">
                <tspan x="1.54" y="82">OCD</tspan>
            </text>
            <path d="M15.63125,111.87375 C15.63125,113.415424 14.5829272,114.617912 12.48625,115.48125 C10.8520752,116.159587 9.14084228,116.49875 7.3525,116.49875 C2.60414293,116.49875 0.23,113.80086 0.23,108.405 C0.23,106.184989 0.769577938,103.718347 1.84875,101.005 C3.17458996,97.6749834 4.77790726,96.01 6.65875,96.01 C8.35459181,96.01 10.1814485,96.7654091 12.139375,98.27625 C14.0973015,99.7870909 15.07625,101.359575 15.07625,102.99375 C15.07625,105.02876 14.1666758,106.647494 12.3475,107.85 C10.7441587,108.929172 8.8325111,109.46875 6.6125,109.46875 C6.18083118,109.46875 5.48708811,109.206669 4.53125,108.6825 C4.65458395,111.611681 5.51790865,113.07625 7.12125,113.07625 C8.47792345,113.07625 9.81145178,112.690837 11.121875,111.92 C12.4322982,111.149163 13.2724982,110.76375 13.6425,110.76375 C14.96834,110.76375 15.63125,111.133746 15.63125,111.87375 L15.63125,111.87375 Z M10.59,103.1325 C10.59,102.361663 10.3664606,101.629378 9.919375,100.935625 C9.47228943,100.241872 8.8787537,99.895 8.13875,99.895 C7.12124491,99.895 6.33500278,100.342079 5.78,101.23625 C5.31749769,102.007087 5.08625,102.916661 5.08625,103.965 C5.08625,104.550836 5.28666466,105.028748 5.6875,105.39875 C6.08833534,105.768752 6.59708025,105.95375 7.21375,105.95375 C9.46459459,105.95375 10.59,105.013343 10.59,103.1325 L10.59,103.1325 Z M34.455,114.6025 C34.455,115.065002 34.1158367,115.488956 33.4375,115.874375 C32.7591633,116.259794 32.1579193,116.4525 31.63375,116.4525 C30.2462431,116.4525 28.8125074,115.604592 27.3325,113.90875 C26.2841614,112.49041 25.2358386,111.056674 24.1875,109.6075 C22.7999931,111.180008 20.903762,114.30956 18.49875,118.99625 C16.3095724,118.533748 15.215,117.59334 15.215,116.175 C15.215,115.157495 17.5120604,111.889194 22.10625,106.37 C22.0137495,105.938331 21.2429239,104.70501 19.79375,102.67 C18.4987435,100.819991 17.5583363,99.5712532 16.9725,98.92375 C17.5275028,97.4745761 18.5141596,96.75 19.9325,96.75 C20.9808386,96.75 21.9520789,97.5516587 22.84625,99.155 C23.4629198,100.38834 24.0795803,101.621661 24.69625,102.855 C28.4579355,98.4149778 30.7549958,96.195 31.5875,96.195 C32.1733363,96.195 32.6820812,96.4108312 33.11375,96.8425 C33.5454188,97.2741688 33.76125,97.7674972 33.76125,98.3225 C33.76125,98.8466693 32.5895951,100.211031 30.24625,102.415625 C27.902905,104.620219 26.73125,105.892082 26.73125,106.23125 C26.73125,106.601252 27.6562408,107.865406 29.50625,110.02375 C31.3562593,112.182094 32.4199986,113.26125 32.6975,113.26125 C33.0058349,113.26125 33.5916624,113.153334 34.455,112.9375 L34.455,114.6025 Z M52.955,104.93625 C52.955,108.081266 52.4000056,110.748322 51.29,112.9375 C49.9024931,115.774181 47.8058474,117.1925 45,117.1925 C43.4891591,117.1925 42.1941721,116.760838 41.115,115.8975 L41.115,117.285 L41.115,118.6725 C41.115,121.632515 41.4541633,123.960408 42.1325,125.65625 C42.4408349,126.334587 42.595,126.766249 42.595,126.95125 C42.595,127.999589 41.9783395,128.52375 40.745,128.52375 C39.8199954,128.52375 39.1262523,128.354168 38.66375,128.015 C38.3245816,127.799166 37.9854184,127.02834 37.64625,125.7025 C37.3687486,124.530827 37.23,123.63667 37.23,123.02 L37.23,111.87375 C37.23,110.856245 37.2916661,109.468759 37.415,107.71125 C37.538334,105.737907 37.6154165,104.365837 37.64625,103.595 C37.6770835,102.824163 37.6770835,101.806673 37.64625,100.5425 C37.6154165,98.9391587 37.6,97.9062523 37.6,97.44375 C37.6,94.8229036 38.4633247,93.5125 40.19,93.5125 C40.6216688,93.5125 41.0224982,93.6589569 41.3925,93.951875 C41.7625019,94.2447931 41.9475,94.5916647 41.9475,94.9925 C41.9475,95.6708367 41.8704174,96.9041577 41.71625,98.6925 C42.918756,96.9966582 44.3679082,96.14875 46.06375,96.14875 C48.3454281,96.14875 50.1029105,97.0737408 51.33625,98.92375 C52.4154221,100.527091 52.955,102.531238 52.955,104.93625 L52.955,104.93625 Z M48.83875,104.52 C48.83875,101.189983 48.1295904,99.525 46.71125,99.525 C46.0945803,99.525 45.2929216,100.126244 44.30625,101.32875 C42.3945738,103.641262 41.3462509,106.83248 41.16125,110.9025 C41.5004184,111.087501 42.1016624,111.734994 42.965,112.845 C43.6433367,113.677504 44.3216633,114.09375 45,114.09375 C47.5591795,114.09375 48.83875,110.902532 48.83875,104.52 L48.83875,104.52 Z M72.33375,106.8325 C72.33375,109.607514 71.6400069,111.981657 70.2525,113.955 C68.6491587,116.205845 66.5216799,117.33125 63.87,117.33125 C61.1566531,117.33125 59.1062569,116.406259 57.71875,114.55625 C56.454577,112.922075 55.8225,110.702097 55.8225,107.89625 C55.8225,105.121236 56.5162431,102.500429 57.90375,100.03375 C59.5070914,97.1045687 61.5883205,95.64 64.1475,95.64 C64.9491707,95.64 65.951244,95.9945798 67.15375,96.70375 C70.6071006,98.7695937 72.33375,102.14581 72.33375,106.8325 L72.33375,106.8325 Z M68.26375,106.74 C68.26375,102.022476 67.1229281,99.66375 64.84125,99.66375 C63.2070752,99.66375 61.9737542,100.665823 61.14125,102.67 C60.5245803,104.180841 60.21625,105.892074 60.21625,107.80375 C60.21625,111.904604 61.4341545,113.955 63.87,113.955 C65.4425079,113.955 66.6141628,113.107092 67.385,111.41125 C67.9708363,110.116244 68.26375,108.559176 68.26375,106.74 L68.26375,106.74 Z M90.46375,111.2725 C90.46375,112.721674 89.8470895,113.985828 88.61375,115.065 C87.2570766,116.236673 85.4379281,116.8225 83.15625,116.8225 C82.1695784,116.853333 81.105839,116.652919 79.965,116.22125 C76.2649815,114.833743 74.415,113.708338 74.415,112.845 C74.415,111.488327 75.3862403,110.81 77.32875,110.81 C77.6062514,110.81 77.8991651,110.825417 78.2075,110.85625 C78.3000005,111.781255 79.0399931,112.521247 80.4275,113.07625 C81.630006,113.569586 82.7862445,113.77 83.89625,113.6775 C84.7904211,113.615833 85.2375,113.292086 85.2375,112.70625 C85.2375,112.61375 85.2143752,112.475001 85.168125,112.29 C85.1218748,112.104999 85.09875,111.958542 85.09875,111.850625 C85.09875,111.742708 84.5129225,111.503752 83.34125,111.13375 C82.01541,110.732915 81.2754174,110.501667 81.12125,110.44 C77.6062324,108.343323 75.84875,105.815015 75.84875,102.855 C75.84875,101.066658 76.3574949,99.4170909 77.375,97.90625 C78.515839,96.2412417 79.9341582,95.40875 81.63,95.40875 C82.894173,95.40875 84.3356169,95.9020784 85.954375,96.88875 C87.5731331,97.8754216 88.5674982,98.939161 88.9375,100.08 C89.1841679,100.881671 89.3075,101.544581 89.3075,102.06875 C89.3075,102.623753 89.2304174,103.086248 89.07625,103.45625 C88.8912491,103.918752 88.7062509,104.381248 88.52125,104.84375 C87.9354137,105.244585 87.3495863,105.445 86.76375,105.445 C86.4554151,105.445 85.938962,105.252294 85.214375,104.866875 C84.489788,104.481456 84.1275,104.150001 84.1275,103.8725 C84.1275,103.749166 84.3124982,103.348337 84.6825,102.67 C84.8983344,102.269165 85.00625,101.930001 85.00625,101.6525 C85.00625,99.8024908 84.2816739,98.8775 82.8325,98.8775 C81.9691624,98.8775 81.3062523,99.4324945 80.84375,100.5425 C80.5045816,101.405838 80.335,102.330828 80.335,103.3175 C80.335,104.55084 81.2137412,105.660828 82.97125,106.6475 C84.5745914,107.35667 86.1933252,108.081246 87.8275,108.82125 C89.5850088,109.622921 90.46375,110.439996 90.46375,111.2725 L90.46375,111.2725 Z M107.29875,111.87375 C107.29875,113.415424 106.250427,114.617912 104.15375,115.48125 C102.519575,116.159587 100.808342,116.49875 99.02,116.49875 C94.2716429,116.49875 91.8975,113.80086 91.8975,108.405 C91.8975,106.184989 92.4370779,103.718347 93.51625,101.005 C94.84209,97.6749834 96.4454073,96.01 98.32625,96.01 C100.022092,96.01 101.848949,96.7654091 103.806875,98.27625 C105.764801,99.7870909 106.74375,101.359575 106.74375,102.99375 C106.74375,105.02876 105.834176,106.647494 104.015,107.85 C102.411659,108.929172 100.500011,109.46875 98.28,109.46875 C97.8483312,109.46875 97.1545881,109.206669 96.19875,108.6825 C96.322084,111.611681 97.1854087,113.07625 98.78875,113.07625 C100.145423,113.07625 101.478952,112.690837 102.789375,111.92 C104.099798,111.149163 104.939998,110.76375 105.31,110.76375 C106.63584,110.76375 107.29875,111.133746 107.29875,111.87375 L107.29875,111.87375 Z M102.2575,103.1325 C102.2575,102.361663 102.033961,101.629378 101.586875,100.935625 C101.139789,100.241872 100.546254,99.895 99.80625,99.895 C98.7887449,99.895 98.0025028,100.342079 97.4475,101.23625 C96.9849977,102.007087 96.75375,102.916661 96.75375,103.965 C96.75375,104.550836 96.9541647,105.028748 97.355,105.39875 C97.7558353,105.768752 98.2645803,105.95375 98.88125,105.95375 C101.132095,105.95375 102.2575,105.013343 102.2575,103.1325 L102.2575,103.1325 Z M125.98375,87.82375 C125.98375,88.5020867 125.891251,89.3808279 125.70625,90.46 C125.459582,91.9091739 125.305417,92.7724986 125.24375,93.05 C125.15125,94.0058381 125.004793,96.8270599 124.804375,101.51375 C124.603957,106.20044 124.50375,108.790414 124.50375,109.28375 C124.50375,112.243765 124.827497,114.463743 125.475,115.94375 C124.950831,116.807088 124.349587,117.23875 123.67125,117.23875 C122.96208,117.23875 122.330003,116.968961 121.775,116.429375 C121.219997,115.889789 120.911667,115.26542 120.85,114.55625 C119.400826,115.88209 117.920841,116.545 116.41,116.545 C114.159155,116.545 112.41709,115.758758 111.18375,114.18625 C110.042911,112.76791 109.4725,110.902512 109.4725,108.59 C109.4725,105.876653 110.027494,103.117097 111.1375,100.31125 C112.55584,96.7653989 114.405822,94.9925 116.6875,94.9925 C118.044173,94.9925 119.43166,95.593744 120.85,96.79625 C121.004167,95.3470761 121.08125,91.6471131 121.08125,85.69625 C121.08125,85.1412472 121.497496,84.86375 122.33,84.86375 C123.316672,84.86375 124.172288,85.1104142 124.896875,85.60375 C125.621462,86.0970858 125.98375,86.8370784 125.98375,87.82375 L125.98375,87.82375 Z M120.61875,103.5025 C120.61875,102.454161 120.387502,101.498338 119.925,100.635 C119.339164,99.5866614 118.568338,99.0625 117.6125,99.0625 C116.224993,99.0625 115.161254,100.43457 114.42125,103.17875 C113.866247,105.152093 113.58875,107.094574 113.58875,109.00625 C113.58875,111.873764 114.421242,113.3075 116.08625,113.3075 C117.812925,113.3075 119.061663,112.027929 119.8325,109.46875 C120.356669,107.742075 120.61875,105.753345 120.61875,103.5025 L120.61875,103.5025 Z" id="exposed" sketch:type="MSShapeGroup"></path>
        </g>
    </g>
</svg>